<svg xmlns="http://www.w3.org/2000/svg" viewBox="0 0 54 33" fill="none" aria-hidden="true">
  <path
    fill="#38BDF8"
    d="M27 0C19.8 0 15.3 3.6 13.5 10.8c2.7-3.6 5.85-4.95 9.45-4.05 2.055.513 3.524 2.004 5.151 3.654C30.746 13.091 33.813 16.2 40.5 16.2c7.2 0 11.7-3.6 13.5-10.8-2.7 3.6-5.85 4.95-9.45 4.05-2.055-.513-3.524-2.004-5.151-3.654C36.754 3.109 33.687 0 27 0Z"
  />
  <path
    fill="#38BDF8"
    d="M13.5 16.2C6.3 16.2 1.8 19.8 0 27c2.7-3.6 5.85-4.95 9.45-4.05 2.055.513 3.524 2.004 5.151 3.654C17.246 29.291 20.313 32.4 27 32.4c7.2 0 11.7-3.6 13.5-10.8-2.7 3.6-5.85 4.95-9.45 4.05-2.055-.513-3.524-2.004-5.151-3.654C23.254 19.309 20.187 16.2 13.5 16.2Z"
  />
</svg>
